# xmcd
#
# Track frame offsets:
#	150
#	11963
#	28504
#	37726
#	50403
#	60734
#	73356
#	86395
#	99295
#	110895
#	127004
#	140127
#	151268
#	166202
#
# Disc length: 2428 seconds
#
# Revision: 1
# Processed by: cddbd v1.5.2PL0 Copyright (c) Steve Scherf et al.
# Submitted via: audiograbber 1.83.01
#
DISCID=bf097a0e
DTITLE=Rhonda Henderson - I Just Wanna Love You
DYEAR=2006
DGENRE=Country
TTITLE0=Little Bird Fly
TTITLE1=Times Like These
TTITLE2=Piece of Heaven (aka Texas)
TTITLE3=I Just Wanna Love You
TTITLE4=That's Where I Run
TTITLE5=Brought Me Back To Love
TTITLE6=Shot In The Dark
TTITLE7=Every Wrong
TTITLE8=Heartbreak Bound
TTITLE9=Ready Or Not
TTITLE10=If You're Goin' Dancin
TTITLE11=For Pete's Sake
TTITLE12=Love Does Grow On Trees
TTITLE13=When Our Towers Fell (Bonus Track)
EXTD=
EXTT0=
EXTT1=
EXTT2=
EXTT3=
EXTT4=
EXTT5=
EXTT6=
EXTT7=
EXTT8=
EXTT9=
EXTT10=
EXTT11=
EXTT12=
EXTT13=
PLAYORDER=
